<?xml version="1.0" encoding="utf-8"?>
<!-- Generator: Adobe Illustrator 21.1.0, SVG Export Plug-In . SVG Version: 6.00 Build 0)  -->
<svg version="1.1" id="Слой_1" xmlns="http://www.w3.org/2000/svg" xmlns:xlink="http://www.w3.org/1999/xlink" x="0px" y="0px"
	 viewBox="0 0 35.782 36.83" style="enable-background:new 0 0 35.782 36.83;" xml:space="preserve">
<style type="text/css">
	.st0{fill:#FFFFFF;}
</style>
<g>
	<g>
		<path class="st0" d="M28.515,34.407c-1.902,0-3.727-0.67-5.173-1.893c-1.74,0.652-3.572,0.983-5.451,0.983
			c-8.567,0-15.537-6.97-15.537-15.536c0-8.567,6.97-15.538,15.537-15.538s15.537,6.971,15.537,15.538
			c0,4.233-1.673,8.19-4.71,11.142c-1.127,1.262-1.071,3.228,0.151,4.45c0.143,0.144,0.186,0.358,0.108,0.545
			S28.717,34.407,28.515,34.407z M23.444,31.438c0.123,0,0.244,0.045,0.337,0.131c1.032,0.944,2.308,1.55,3.673,1.758
			c-0.866-1.55-0.695-3.532,0.542-4.915c2.866-2.787,4.432-6.489,4.432-10.45c0-8.017-6.521-14.538-14.537-14.538
			S3.354,9.945,3.354,17.962c0,8.016,6.521,14.536,14.537,14.536c1.855,0,3.662-0.345,5.368-1.024
			C23.319,31.45,23.382,31.438,23.444,31.438z"/>
	</g>
	<g>
		<path class="st0" d="M13.208,15.064l-3.341,7.578c-0.611,1.457-1.404,1.912-2.457,1.912c-0.663,0-1.34-0.222-1.769-0.638
			l0.533-0.937c0.338,0.326,0.767,0.508,1.235,0.508c0.598,0,0.975-0.273,1.313-1.066l0.221-0.48l-3.042-6.877h1.301l2.404,5.512
			l2.38-5.512H13.208z"/>
		<path class="st0" d="M19.734,18.924h-5.591c0.156,1.209,1.131,2.015,2.496,2.015c0.806,0,1.482-0.272,1.989-0.832l0.689,0.807
			c-0.625,0.729-1.573,1.118-2.718,1.118c-2.223,0-3.705-1.47-3.705-3.523c0-2.041,1.469-3.51,3.458-3.51s3.406,1.43,3.406,3.549
			C19.76,18.652,19.747,18.808,19.734,18.924z M14.144,18.027h4.42c-0.13-1.156-1.001-1.976-2.21-1.976
			C15.158,16.051,14.273,16.857,14.144,18.027z"/>
		<path class="st0" d="M27.976,18.508c0,2.119-1.469,3.523-3.484,3.523c-0.975,0-1.833-0.377-2.405-1.118v3.563h-1.248v-9.412h1.196
			v1.092c0.56-0.768,1.443-1.157,2.457-1.157C26.507,14.999,27.976,16.402,27.976,18.508z M26.715,18.508
			c0-1.456-1.001-2.418-2.327-2.418c-1.313,0-2.314,0.962-2.314,2.418c0,1.47,1.001,2.431,2.314,2.431
			C25.714,20.939,26.715,19.978,26.715,18.508z"/>
		<path class="st0" d="M28.769,21.2c0-0.468,0.363-0.832,0.857-0.832c0.481,0,0.832,0.364,0.832,0.832
			c0,0.455-0.351,0.832-0.832,0.832C29.132,22.032,28.769,21.655,28.769,21.2z M28.885,12.853h1.47l-0.247,6.228h-0.988
			L28.885,12.853z"/>
	</g>
</g>
</svg>
