<?xml version="1.0" encoding="utf-8"?><svg xmlns="http://www.w3.org/2000/svg" xmlns:xlink="http://www.w3.org/1999/xlink"><symbol class="aarrow" viewBox="0 0 28.5 8.179" id="arrow" xmlns="http://www.w3.org/2000/svg"><g opacity=".35"><path class="aarrow__line" fill="none" stroke="#fff" stroke-linecap="round" stroke-linejoin="round" d="M.5 4.089h26.916"/><path class="aarrow__arrow" fill="#fff" d="M24.102 8.179l-.682-.733 3.612-3.356L23.42.732 24.102 0 28.5 4.09z"/></g></symbol><symbol id="logo" viewBox="0 0 35.782 36.83" xmlns="http://www.w3.org/2000/svg"><style>.bst0{fill:#fff}</style><path class="bst0" d="M28.515 34.407a7.994 7.994 0 0 1-5.173-1.893c-1.74.652-3.572.983-5.451.983-8.567 0-15.537-6.97-15.537-15.536 0-8.567 6.97-15.538 15.537-15.538s15.537 6.971 15.537 15.538c0 4.233-1.673 8.19-4.71 11.142-1.127 1.262-1.071 3.228.151 4.45a.5.5 0 0 1-.354.854zm-5.071-2.969c.123 0 .244.045.337.131a6.995 6.995 0 0 0 3.673 1.758 4.26 4.26 0 0 1 .542-4.915c2.866-2.787 4.432-6.489 4.432-10.45 0-8.017-6.521-14.538-14.537-14.538S3.354 9.945 3.354 17.962c0 8.016 6.521 14.536 14.537 14.536 1.855 0 3.662-.345 5.368-1.024a.499.499 0 0 1 .185-.036z"/><path class="bst0" d="M13.208 15.064l-3.341 7.578c-.611 1.457-1.404 1.912-2.457 1.912-.663 0-1.34-.222-1.769-.638l.533-.937a1.76 1.76 0 0 0 1.235.508c.598 0 .975-.273 1.313-1.066l.221-.48-3.042-6.877h1.301l2.404 5.512 2.38-5.512h1.222zm6.526 3.86h-5.591c.156 1.209 1.131 2.015 2.496 2.015.806 0 1.482-.272 1.989-.832l.689.807c-.625.729-1.573 1.118-2.718 1.118-2.223 0-3.705-1.47-3.705-3.523 0-2.041 1.469-3.51 3.458-3.51s3.406 1.43 3.406 3.549c.002.104-.011.26-.024.376zm-5.59-.897h4.42c-.13-1.156-1.001-1.976-2.21-1.976-1.196 0-2.081.806-2.21 1.976zm13.832.481c0 2.119-1.469 3.523-3.484 3.523-.975 0-1.833-.377-2.405-1.118v3.563h-1.248v-9.412h1.196v1.092c.56-.768 1.443-1.157 2.457-1.157 2.015 0 3.484 1.403 3.484 3.509zm-1.261 0c0-1.456-1.001-2.418-2.327-2.418-1.313 0-2.314.962-2.314 2.418 0 1.47 1.001 2.431 2.314 2.431 1.326 0 2.327-.961 2.327-2.431zm2.054 2.692c0-.468.363-.832.857-.832.481 0 .832.364.832.832a.821.821 0 0 1-.832.832.835.835 0 0 1-.857-.832zm.116-8.347h1.47l-.247 6.228h-.988l-.235-6.228z"/></symbol><symbol id="menu" viewBox="0 0 32.343 32.343" xmlns="http://www.w3.org/2000/svg"><style>.cst0{fill:#fff}</style><path class="cst0" d="M16.171 31.708c-8.567 0-15.537-6.97-15.537-15.537C.634 7.605 7.604.635 16.171.635s15.537 6.97 15.537 15.536c0 8.567-6.97 15.537-15.537 15.537zm0-30.073c-8.016 0-14.537 6.521-14.537 14.536s6.521 14.537 14.537 14.537 14.537-6.521 14.537-14.537S24.187 1.635 16.171 1.635z"/><path class="cst0" d="M8.958 10.471h13.5v1h-13.5zm0 5.2h17v1h-17zm0 5.141h10.25v1H8.958z"/></symbol></svg>